/* XPM */
static char *f224951f7142450ada49e161b0f98b70THC80Rw0NNEwYwPi[] = {
/* columns rows colors chars-per-pixel */
"64 64 223 2 ",
"   c #010101",
".  c #0B0102",
"X  c #040904",
"o  c #0A0904",
"O  c #040309",
"+  c #0A050A",
"@  c #070909",
"#  c #090909",
"$  c #130100",
"%  c #1B0100",
"&  c #1A0D05",
"*  c #061506",
"=  c #171606",
"-  c #090511",
";  c #0B0B12",
":  c #010C15",
">  c #110818",
",  c #061315",
"<  c #131415",
"1  c #1A1D1C",
"2  c #16191D",
"3  c #240101",
"4  c #2B0000",
"5  c #230A00",
"6  c #330001",
"7  c #3B0000",
"8  c #390208",
"9  c #261400",
"0  c #1F251B",
"q  c #352816",
"w  c #1B1322",
"e  c #1A1624",
"r  c #180F22",
"t  c #271E33",
"y  c #1E2223",
"u  c #0E312B",
"i  c #222525",
"p  c #252928",
"a  c #282A2A",
"s  c #2B2635",
"d  c #2E3231",
"f  c #353437",
"g  c #312931",
"h  c #430002",
"j  c #48050C",
"k  c #540908",
"l  c #5E131A",
"z  c #4B1017",
"x  c #650C14",
"c  c #76191E",
"v  c #62151B",
"b  c #5E2000",
"n  c #703900",
"m  c #6D1C23",
"M  c #741420",
"N  c #4C3F36",
"B  c #1C761F",
"V  c #277B1A",
"C  c #357D16",
"Z  c #3A4838",
"A  c #2E4736",
"S  c #187937",
"D  c #197628",
"F  c #277C26",
"G  c #297837",
"H  c #437625",
"J  c #3B2F47",
"K  c #3D364A",
"L  c #473C55",
"P  c #493E44",
"I  c #1D7D44",
"U  c #1B7E54",
"Y  c #167D5E",
"T  c #24795C",
"R  c #2F754C",
"E  c #3B486A",
"W  c #3E4C71",
"Q  c #324F71",
"!  c #3B5374",
"~  c #39587A",
"^  c #37526D",
"/  c #157D69",
"(  c #197D76",
")  c #217B69",
"_  c #39667C",
"`  c #2D7778",
"'  c #4B445C",
"]  c #444457",
"[  c #54445E",
"{  c #4E514F",
"}  c #536A4C",
"|  c #766F5A",
" . c #434364",
".. c #4C4565",
"X. c #44466B",
"o. c #42496E",
"O. c #4A496B",
"+. c #4B4768",
"@. c #534B64",
"#. c #55466B",
"$. c #534D6C",
"%. c #564868",
"&. c #565367",
"*. c #405A7B",
"=. c #40647C",
"-. c #706A5E",
";. c #AD1C14",
":. c #A91C1A",
">. c #B41C15",
",. c #B71A1B",
"<. c #AA2415",
"1. c #B82718",
"2. c #BD381B",
"3. c #891C27",
"4. c #AC1C23",
"5. c #B51B25",
"6. c #86262B",
"7. c #982429",
"8. c #982B35",
"9. c #8D363C",
"0. c #AC242C",
"q. c #A82326",
"w. c #AA292A",
"e. c #C22A1F",
"r. c #C53B1D",
"t. c #C43C25",
"y. c #C02920",
"u. c #9F541D",
"i. c #AF4D08",
"p. c #B44D04",
"a. c #B34D0A",
"s. c #BB460C",
"d. c #AD5B00",
"f. c #AE5308",
"g. c #B45202",
"h. c #B65507",
"j. c #BB4D14",
"k. c #BD5014",
"l. c #9C6314",
"z. c #B96804",
"x. c #B77604",
"c. c #AE6A00",
"v. c #92592F",
"b. c #AC552B",
"n. c #94753C",
"m. c #C4491A",
"M. c #C5511A",
"N. c #C37806",
"B. c #C17213",
"V. c #C54422",
"C. c #CA4B24",
"Z. c #C84227",
"A. c #9E6D4D",
"S. c #358115",
"D. c #1E833A",
"F. c #1F862A",
"G. c #22842B",
"H. c #238335",
"J. c #488816",
"K. c #55911B",
"L. c #619413",
"P. c #749E16",
"I. c #78A114",
"U. c #589520",
"Y. c #699D28",
"T. c #6DA224",
"R. c #7FA82E",
"E. c #15824C",
"W. c #1B8149",
"Q. c #198157",
"!. c #238347",
"~. c #1A8166",
"^. c #1F8172",
"/. c #20816F",
"(. c #5D8056",
"). c #BA8501",
"_. c #8FAC1A",
"`. c #AABB1C",
"'. c #95B837",
"]. c #8CB030",
"[. c #AEBC30",
"{. c #C98A15",
"}. c #CB960F",
"|. c #CEA718",
" X c #DCAD14",
".X c #DAB918",
"XX c #CCBD18",
"oX c #CE9622",
"OX c #D4B82A",
"+X c #CAB02C",
"@X c #B8C21E",
"#X c #BBC527",
"$X c #A4C02F",
"%X c #C5C21C",
"&X c #CCC119",
"*X c #C9C334",
"=X c #D6C135",
"-X c #C3C420",
";X c #928956",
":X c #B7835B",
">X c #9CB456",
",X c #808E75",
"<X c #AD9869",
"1X c #91A07F",
"2X c #A6A179",
"3X c #C59D45",
"4X c #C0A943",
"5X c #CFA770",
"6X c #C99566",
"7X c #3D5B81",
"8X c #346D82",
"9X c #396688",
"0X c #237C82",
"qX c #2B7A8D",
"wX c #27788A",
"eX c #347689",
"rX c #2B7991",
"tX c #327596",
"yX c #306D8A",
"uX c #1E8081",
"iX c #248183",
"pX c #9CA98B",
"aX c #A4AB8A",
/* pixels */
"                                                                                                                                ",
"                                                                                                                                ",
"                                                                                                                                ",
"                                                                                                                                ",
"                                                                                                                                ",
"                                                                                                                                ",
"                                                                                                                                ",
"                                                                                                                                ",
"                                                                                                                                ",
"                                                                                                                                ",
"                                                                                                                                ",
"                                                                                                                                ",
"                                                                                                                                ",
"                                                                                                                                ",
"                                                                                                                                ",
"                                X X X X X X X X X X X X X X X X @ @ @ @ X X X X @ @ @ @ o X X X                                 ",
"                              @ # X # # X # X # # X X X X X X @ + + # # # X @ # # @ + # # o X # X                               ",
". .                         @ @ X                                                             X X                               ",
"% % $ . . O                   X #                                                             o o                               ",
"m v z j 8 3 % $ $ . . . . . . . #                                                             + +                               ",
"q.q.q.q.7.7.3.c x k h 6 3 % $ $ o                                                             # #                               ",
"e.1.>.>.;.;.:.<.q.7.7.6.c m l z %                                     X       . .             # @                               ",
"t.t.Z.Z.t.2.1.<.<.<.:.:.4.4.0.8.3                               .               .       X     @ X                               ",
"a.i.i.a.a.j.m.m.m.r.r.e.y.1.,.7.3                           X @ < +             .             @ X                               ",
"|.}.).x.c.d.g.p.s.s.m.C.C.C.V.b.3                       X X   d &.O O                           X                               ",
"`.#X*X*XOX+XoX{.B.z.h.g.p.p.p.u.5                   @       < p 2 f . + o o   o               o $ $ . . .                       ",
"C J.Y.R.'.[.*X*X=XOX|.}.{.N.z.l.%             X             a X @ P & $ $ $ $         O O     $ z j 7 4 3 % $ $ .           . . ",
"S S D V C J.L.P._._.[.+X*X=XOX4X=                         i ] <   o -.-.N q 9 & $ . . $ $ $ . 3 9.8.6.6.c l k 8 6 4 % $ $ $ $ $ ",
"/ / Y U I S D B V S.J.K.Y.].'.>X*     X         X # y i a { d 2     Z pXpXaX2X;Xn.v.n b k h 6 7 7.:.q.0.0.0.0.0.7.7.3.M x k h 7 ",
"0X0X` ( / / ~.Y E.E.S D B V C H *         # 1 a p p <   p <   X   X X Z A } | <X<X5X5X5X6X:XA.v.w.1.>.>.>.>.,.,.5.5.0.0.0.8.7.7.",
"^ ~ _ _ 8XeX0X( ( / ~.Q.W.I G G X   < p d a 1 #   X   # f   X         0 <   o 0 N { -.,X1XpXaX5Xb.m.m.r.2.2.1.<.;.;.;.:.:.4.4.4.",
" . .E E ! ~ _ 8XqXwX0X( ) ) T R A a i <         X     p <       X       f     O O : , u A } (.;Xb.k.M.M.M.C.C.C.Z.t.t.1.1.>.>.>.",
"L ' ...... . .E W ~ ~ 8XeXeXeX_ ,                   < d   X X X X X X   1 d   @ O         X * q l.f.f.a.k.m.m.m.m.C.C.C.C.V.V.r.",
"O > t J L [ %.#...X.E E Q ~ 9X=.:                 X 1 f i i y 1 y y i y p d           X       & 3XoX{.x.z.z.g.g.h.h.a.a.k.k.M.M.",
"O   O O - w s J L ......+. . .] ;               X             X           @                   = +X.X.X.X X X}.}.).x.c.d.d.g.p.p.",
"            O O - r t J L [ %.[ +                       @ X       X X X       X               = '.`.@X@X%X%X&XXXOX.X|.|.{.{.N.z.",
"                    O O - w g f +               X                     X               X       * H J.U.T.R.'.$X#X#X%X&X.X.X.X X X",
"                            . + #                     X     X   @ X                           * R H.F F C S.J.L.I._.`.@X#X%X%X%X",
"                              @ #                                           X                 * R !.!.H.H.F F F V S.S.J.K.T.].'.",
"                        X     X @                       X                                 X   * T ~.T U U Q.W.W.W.D.H.G.V V S.S.",
"                              X @                                                             , ` iXiXuX( ( ( / Y Q.W.D.D.H.G.F.",
"                              X X                                                             : _ yXyXrXrXwXwXiX^.^.~.Q.Q.E.E.E.",
"                              X #                                                             ; X.W ! *.9X9XeXeXqXwXwX0X0X( ( ( ",
"                              X X                                                             ; %.#.+.X.o.W ~ ~ 9XyXyXtXtXrXqXqX",
"                              X #                                                             - @.$.$.$.O.O.O.O.o.o.W ! 7X9X9X9X",
"                              X @                                                             + w s K ' @.$.$.#.#.#.+.O.o.W ! ~ ",
"                              @ X                                                             @ O O O - r s K ' @.%.$.$.O.X.X.X.",
"                              @ ; @ # # @ # @ @ # # # # # # # # @ @ o o # # # # # # # # # # # # #           O - e s L ' @.$.$...",
"                                X X X X X X X X X X X X X X X X X X X X X X X X X X X X X X X X                     O ; e s K ] ",
"                                                                                                                X         O + ; ",
"                                                                                                                                ",
"                                                                                                                                ",
"                                                                                                                                ",
"                                                                                                                                ",
"                                                                                                                                ",
"                                                                                                                                ",
"                                                                                                                                ",
"                                                                                                                                ",
"                                                                                                                                ",
"                                                                                                                                ",
"                                                                                                                                ",
"                                                                                                                                ",
"                                                                                                                                ",
"                                                                                                                                "
};
