/* XPM */
static char *_cde73d36728491cb0e32367cbcb2c843VbO3rmYDCxUM9ws[] = {
/* columns rows colors chars-per-pixel */
"64 64 217 2 ",
"   c #020102",
".  c #090503",
"X  c #050509",
"o  c #0C0B0C",
"O  c #0A0807",
"+  c #130D0B",
"@  c #11050A",
"#  c #14110E",
"$  c #191B0E",
"%  c #0D0E13",
"&  c #140D15",
"*  c #0E1216",
"=  c #131314",
"-  c #191514",
";  c #1C1A16",
":  c #151519",
">  c #19161A",
",  c #16191C",
"<  c #1B1B1B",
"1  c #161817",
"2  c #0E100F",
"3  c #231E1B",
"4  c #211816",
"5  c #28060D",
"6  c #1F201D",
"7  c #24211D",
"8  c #2A211F",
"9  c #1B1B23",
"0  c #170F2A",
"q  c #211E25",
"w  c #341129",
"e  c #1C222D",
"r  c #232324",
"t  c #2B2623",
"y  c #24242A",
"u  c #2A252A",
"i  c #2C2C2B",
"p  c #2A2927",
"a  c #322D2B",
"s  c #302624",
"d  c #33332D",
"f  c #292B33",
"g  c #312F35",
"h  c #333332",
"j  c #3B3C3B",
"k  c #393736",
"l  c #2C3033",
"z  c #6C0601",
"x  c #5B083E",
"c  c #423D39",
"v  c #440516",
"b  c #43433E",
"n  c #49433E",
"m  c #393B42",
"M  c #2F374C",
"N  c #4B3B44",
"B  c #6E0567",
"V  c #3E4347",
"C  c #434444",
"Z  c #4A4B4C",
"A  c #47474A",
"S  c #544E4C",
"D  c #54524D",
"F  c #4C4C51",
"G  c #464650",
"H  c #545453",
"J  c #5B5C55",
"K  c #5B5B5A",
"L  c #565756",
"P  c #4F504B",
"I  c #625D59",
"U  c #5D6158",
"Y  c #616356",
"T  c #63645D",
"R  c #6B655E",
"E  c #5A5B64",
"W  c #685F64",
"Q  c #5C6063",
"!  c #646463",
"~  c #6A6C64",
"^  c #6C6B6B",
"/  c #666669",
"(  c #716865",
")  c #6E7369",
"_  c #71736A",
"`  c #747467",
"'  c #696E75",
"]  c #716E75",
"[  c #737474",
"{  c #7C7C7B",
"}  c #787977",
"|  c #6E7271",
" . c #880400",
".. c #AE0500",
"X. c #F70B03",
"o. c #E30802",
"O. c #FB3406",
"+. c #867A7A",
"@. c #8D464C",
"#. c #4FE03D",
"$. c #7D8175",
"%. c #FE9005",
"&. c #83E91B",
"*. c #FEFD04",
"=. c #FCF90A",
"-. c #FFEC09",
";. c #E8FF24",
":. c #83837D",
">. c #808277",
",. c #FEFB6E",
"<. c #7D7E81",
"1. c #737282",
"2. c #687480",
"3. c #5E6B87",
"4. c #6E4AEA",
"5. c #963584",
"6. c #AF23D3",
"7. c #8410CB",
"8. c #C92FC5",
"9. c #8C4AF2",
"0. c #4AEEAF",
"q. c #2DA8F4",
"w. c #5E94F6",
"e. c #26D2F4",
"r. c #1FF2E1",
"t. c #848484",
"y. c #8A8A84",
"u. c #85868A",
"i. c #8B8C8C",
"p. c #898683",
"a. c #938E89",
"s. c #93938D",
"d. c #9A968D",
"f. c #8F8F91",
"g. c #928F92",
"h. c #949493",
"j. c #99979B",
"k. c #9C9C9B",
"l. c #989798",
"z. c #8F918E",
"x. c #A59D9A",
"c. c #B38C85",
"v. c #9FA09A",
"b. c #A3A29D",
"n. c #9898A3",
"m. c #8C96A2",
"M. c #AE99A3",
"N. c #98A4A9",
"B. c #A4A4A3",
"V. c #A7A9A4",
"C. c #ABAAA6",
"Z. c #ACACAB",
"A. c #A5A5A7",
"S. c #B3AEAC",
"D. c #B3B2AD",
"F. c #BBB1A8",
"G. c #B5B5B3",
"H. c #BBBBB5",
"J. c #BCBCBB",
"K. c #B7B7B7",
"L. c #ADB1B2",
"P. c #C1BEBA",
"I. c #C691AD",
"U. c #BFC0BA",
"Y. c #C2C2BE",
"T. c #BDBEC2",
"R. c #D0BCC5",
"E. c #BFC2C4",
"W. c #BFD1DF",
"Q. c #C4C4C3",
"!. c #CBCAC5",
"~. c #CCCDCB",
"^. c #C6C7C6",
"/. c #D2CECD",
"(. c #CFD0CB",
"). c #D1D1CD",
"_. c #D8D3CB",
"`. c #C3C9D0",
"'. c #CFD3D3",
"]. c #D4D4D3",
"[. c #DADAD5",
"{. c #DCDDDB",
"}. c #D7D7D7",
"|. c #DEE0DC",
" X c #E2E2DD",
".X c #D8DDE1",
"XX c #E0DFE4",
"oX c #DEE2E2",
"OX c #D7ECF1",
"+X c #E4E5E3",
"@X c #E8E6E3",
"#X c #E7E9E6",
"$X c #EAEAE6",
"%X c #E4E5E9",
"&X c #E5EAEC",
"*X c #ECECEB",
"=X c #E9E7EA",
"-X c #F0EFEC",
";X c #EFF1ED",
":X c #F1F2EE",
">X c #F4F0E7",
",X c #EDEDF2",
"<X c #E6E8F3",
"1X c #F0EFF3",
"2X c #EEF2F2",
"3X c #F4F4F3",
"4X c #F9F6F5",
"5X c #F6F9F5",
"6X c #F9FAF6",
"7X c #F6F6F9",
"8X c #F9F7FA",
"9X c #F6F9FA",
"0X c #FAFAF9",
"qX c #FAFCFB",
"wX c #FDFCFA",
"eX c #FDFDFD",
"rX c #FDFDFC",
/* pixels */
"wXrXeX0XwXeXwX6X0XwXqXqXqXwXeXqX0XwX9X0XqXqX6XqX9X9X7X9X9X9X5X2X7X5XwX9X9X9X9X9X X0X0X0XqXqXqXqX0XZ.eXqXeX0XqX9X6XeXwXeXrX9X9XeX",
"wXwXwXwX0X3XwX0XwXwXwXwXwXwX0X0X6X6X6X0X6X6X0X6X6X8X7X7X6X7X5X3X3X4X7X0X7X0X7X7X[.6X8X6X0X0XwXwX6XD.wXwX0XwX0XwXeXwX0XwXeX6X0XwX",
"i.` ) } ~ s.[ _ _ | _ ~ ~ T _ ) U T T T J J D Y T U H ! Y T T T J T J D H Y Y Y $ U Y J Z J Y Y ~ d R ~ ~ K _ ) ~ ~ $.~ ~ C.J { ",
"wXwXwX0X0X0X6X6X7X:X4X4X3X4X7X3X3X3X- 6X7X3X3X3X:X3X:XeX7X7X3X3X3X3X3X3X6X3X3X3X3X3X3X3X0X8X7X3X3X3X4X7X0XwXwX0X7X6X4X6X6X7X>XeX",
"eXeXwX6X6X6X6X6X0X X4X4X3X3X4X7X3X:X; 6X3X7X7X7X3X3X:X0X3X:X3X3X3X3X7X3X3X3X:X3X3X3X3X7X6X8X3X3X3X3X4X6X0X6X0X4X6X7X7X6X6X6X>X8X",
"eX0X0X0X5X3X7XqX7X7X3X7X-X4X3X3X3X3X3X:X,X3X8X3X,X*X*X,X3X,X7X7X,X*X3X7X2X3X,X3X!.1X,X3X3X3X7X3X3Xb.3X3X3X7XrX7X8X4X4XwX4X9X9X0X",
"eXrXeX0X6XeXwX0X7X3X3X3X3X3X4X3X3X3X3X3X:X;X3X3X3X:X3X:X:X:X:X6X*X3X:X-X:X*X:X3X{.:X:X3X:X3X3X7X3XD.7X3X7X7X7X7X6X6XwX0X6X6X6X0X",
"{.;X@X X X6X@X X[.$X@X[.[. X{.!.!.Y.|.U.H.H.G.:.{ { ) s.:.:.>.y.$.y.p.:.s.[ } { J J.D.H.D.Y.Y.Y.^.}  X[.[.|. X X|.|.$X X X X:X@X",
"wXwXwXwX0XqX0X0X0X:XwX0XwXqXwXwX0XwX- wXwX0X0X0X0X0X0XeX6X6X6X7X7X6X6X6X0X0X0X6X6X4XwX0XwXwXwXwXwXwX0XwXwXwXwXwX6X6X6X6X0X0X:XwX",
"eXwXwX0X6X0X0X0XwX[.0X6X0X6XqX0X0X0X- 0X6X0X0X6X4X7X7XeX7X7X7X3X7X7X7X0X8X7X7X7X3X7X8X9XwXwXrX0X6XrX0X0XwXwXwX6X6X0X6X6X6X0X:XwX",
"eXeXwXwXwX6XwXwXeXeXwXwXwXwXeXwXwXwXeXwXwXwXwX4XwXwXwXqXeX0XrX6X7X7X0XeX5XeXeXeXQ.qXwXwXwXwXwXwX6XC.wXwXeX0XeXwXwXwX7XwXwXwXwXwX",
"wXeXwX0X6XwXwX6X6X6X6X6X6X6X4X6X3X3X6X7X7X6XwX0X6X7X3X3X3X7X3X:X3X3X7X7X6X7X3X3X_.3X7X7X6X0XwX6X3XD.6X6X6X6X0X0X6X6X0X0X0X6X0X6X",
"qX6X6X6XwXeX6X0X5X6X6X0XwX0X5X6X6XwXqX6X6X6X6X6X6X6X6XwX6X6X5XwX3X5X6X5XwX0X6X0XJ 0X6XwXqX0X6X6X6Xi.6X0X6X3X6X6X6X5X6X6X6X5XwXwX",
"0XwXwX0X6XqX6X6X6X:X6X6X6X3X3X3X7X3X; 6X3X3X3X3X3X3X3X6X7X3X3X7X7X7X3X7X5X3X3X3X3X7X3X3X6X6X3X3X3X5X7X4X6XwX6X6X7X3X4X6X0X6X4XwX",
"wXwX0X6X7X6X7X6X6X[.3X3X3X3X3X3X3X3X; 3X3X3X3X3X3X3X3X6X3X3X*X3X3X3X3X7X3X3X:X3X:X:X3X3X3X3X7X3X3X3X3X3X6X3X4X3X3X3X:X3X7X6X>XwX",
"0XqX7X3X3X0X5X6X7X7X:X:X3X6X,X3X3X3X3X7X3X3X7X,X3X3X7X1X1X*X3X3X,X3X3X3X,X3X3X3XY.,X3X3X7X3X3X3X3Xb.7X3X3X7X6X7X7X6X3X7X6X7XqX6X",
"qX0XeXrXqXeXwX0X3X3X3X3X7X6X6X6X3X3X3X3X3X3X6X3X3X:X:X:X3X*X3X3X-X:X:X:X3X3X:X:X{.:X:X3X3X7X7X3X3XF.6X7X7X3X7X6X0X6X0X6XqX0X0XwX",
"qXeXrXwXwXwXwX6X6XwX6X4X6X0XeX0XwX0XqX6X0X6XwX3X X{.#XwX$X X@X#X@X X@X@X3X{.|. Xb.6X0X0X0X0X0XwX0XV.wX6X6X0X0X0X0XwX6XwXwX0XeXqX",
"4XeXeXrXrX0X7X3X5X$X7X0X7X7X7X3X3X:XS qX7X7X3X3X:X:X-XeX7X7X3X:X:X3X:X3X7X:X*X:X:X:X3X3X5X*X*X:X:X3X3X7X0X6X8X5X7X0X0X0X0X0X:XwX",
"0XeXeX6X5X9X7X7X7X X7X7X3X3X3X3X:X3X_ 0X6X7X7X3X:X3X;XeX7X7X1X3X3X3X3X3X3X3X*X3X7X3X:X6X0X*X:X:X:X3X7X0X9X3X0X7X7X5X7X0X6X0X:X6X",
"eXeX7X3X7X9X7X3X3X7X7X3X3X3XeXeX0XrXqX9X7X7X0XeXeXeXeXeXeXwXwXwXwXeXwXwXeXeXeXeX).7X3X7X7X7X7X3X1Xz.3X7X2X0X3X3X7X0X8X8X0X0XqXwX",
"0XeXqX9X7X7X5X7X7X7X3X3X7X3XwXrXeX0X0X0X7X7X7XeXeXwXwXwXwXwXwXwX6X0X0XwXwXwXwXwX$X7X3X7X7X0X0X0X0Xb.*X3X3X7X7X7X7X7X7X0X9X9XqX3X",
"eX7X7X7X9X7X7X3X3X0X3X*X*X7XeX6X$X}.[.y.P C s.K V.eXeXqXeXwXwXeXwXeXeXeX/ n 7 = # s.C.J./.+X+X*X3Xd.*X7X*X3X*X3X7X0X7X7X7X4XrX6X",
"6XrX6X7X7X5X7X3X7X3XwXwXwXeXwXwXeXwXeXeXeXeXeXeXeXeXeXeXeXeXeXeXeXeXeXeXeXeXeXeXeXeXeXeXeX6X0X0X0X0X0X0XwXeX7X3X3X3X5X3X3X5X:X0X",
"0X0X0X9X0X5X9X7X8X:XeX0XeXeX0XeXeXeX6XY.{ K h eXeXeXeXeXeXeXeX7XeXeXeXeXeXeXeXeXeXeXeXeXwX3X7X0X0X6X0XeXeXwX3X7X3X7X7X7X6X6X-X6X",
"wX6X3X3X6XL h.|.0X6X0X0X0XwX0XeXeXeXeXeXeXeXt.eXeXeXeXeXeXeXeX+XeXeXeXeXeXeXeXeXeX0X0XwXeXeXeXeXeXT 0X9XwX0X7X3X).s.8X5X:X:XrX6X",
"6X0X6X0X0XwXeXwXwXqXwX0XqX0XeXeXeXeXeXeXeX0X7 h.3X0XeXeXeXeXeXeXeXeXeXeX* eXeX[.d Q.0X0X0XeXeXeXeX@X7X0X0X0X0X6XwX0X7X7X:X3X7X6X",
"0X0X0X0X0XwX3XwXwXeX$Xb.I Z.^.7XeXeXeXeXeXeXeXeXeXeXeXeXeXeXeXh.eXeXG.~ = eXeXeXeXeXeXeXeXV.c ; ; 3 6XwX4X6XwXwX6X5X*X:X3X3X7X0X",
"qX{.*X3X0X0X0X0X0Xo eXeXeXeXeXeXeX3XeXeXeX{ eXeXJ.H V eXeXeXeXeXeXeXeXeXeXeXeXeXeXh 6XeXeX-XeXeXeXeXeXeXeX[.0X3X3X3X3X7X7X6XQ.6X",
"eX0X0X0X0XeX0X0XeXo eXeX0XeXeXeXeXeXeXeXeX*XL y eX6X< <.{ } } } [ { { i.> eXeXK ~ ~ eXeXeXeXeX*X7XeXeXeXeXeX3X:X4X3X3X7X6X6X[.3X",
"wX0X0XwXwXO { S.wXwXeXeXwXo eXeXeXeXeXeXeXeXeXeXeXC.= ^ L G.eX{ <.eXeXK > { eXeXeXeXeXeXeXeXeXeXeXeXeXeXeXeXwX6Xa.k qX6X6X0XrX6X",
"wX0XwX0X0Xh rXeXwXeXeX0X:XeX0Xd p eXeXeX2X< eXeXeXeXeXeXeXeXt.b h.eXeXeXeXeXeXeXeXeXeXeXeXeX:.eXeXeXeXeXeXeXeXeXeXwX4X6X0X0X6X4X",
"eXeX0X0X0Xi.0XG./ j @XeXeXeXeXeX6XJ i qXeX*X^ / H { [ / ! / k.: u.[ ! ! ^ { eXb D.eXj wXk H eXeXeXeXeX#X= 6 K k.:XeXwX0X8X0X0XeX",
"6XY.}.3XeXwXwX0X0X~.eXeXeXeX0XeXeXeXeXeXK eXeXeX*Xp E eXeXeXeXeXeXeXeXeXeX! C.eXeXeXeXeXeXeXeX0XeXeXeXeXeXeXwXwXwXwXwXwX6X_.r 0X",
"0X0XwXwXwXwX0X0XwX0X0X7 = eXeXeXeXeXeXeXeXeXeX].k.i.E C.k.j.l.l.l.g.i.h.k.i.{ ] { eXeXeXeXeXeXeXeXeX- r +XwXeXwXwXwXeXwXeXwXK 0X",
"3X7X3XwX4XZ #X0XwXwXeX0X@X/ ! E eXeXeX3XL { u.i.h.p.r Z.B.k.k.k.h.u.Q +X}.eXeXeXeXeX[ [ ^ eX0XG E eXeXeXeXeXqX3Xs.- J.wXwXwX6Xz.",
"0X0X0X6X6X0XeXwXeXeX6X$X~.[ C. Xi eX0X3X2XL ^ [ } | / C.Z.Z.C.V.i.*X+X+X{.eXeXeXeXwXb ^.eXeX^ T.2X= XXeXeXeXeXeXeX{.*X0X0X0X0X0X",
"7X0X0X3X6X6X:Xs.= ].eXeXeXeXeXeX0X} k.3X#X7X3XeXeX0XB.V.U.Y.U.K.k.7X3X*X*X7XeXeXeXeX:.Q.eXeXeXeXeXeX[.eXwXO o h @XwX$X7X0X0X0X6X",
"0XK.(.wXwX0X0X4X3XeXeXeXwX3XeXwX{ <.t.^ eXeXeX}.].Q.G.            3X3X3Xt.t.u.p.i.U H.).i.i.t.eXeXeXeXeXeXeX~.eXeXeXeXeX0XQ.% 0X",
"6X2XeXwXwX0X0X3X_.C.; Z h G Q.] ] ] ^ 7X[.}.}.|.:X].].            X X     X X     i.B.y.i.f.i.i.u.i.Q.L > > ^ eXeXeXeXeXeXwX> 6X",
"Y.*X0X7XrXk.eXeXwXwXwXwXC } [ ! Q E L g.{.+X$X3X3X:XX X           X X X X % y     }.+XT [ { t.i.i.h.y eXeXeXeXeXeXp.o 0X6X:X#XR ",
"0X0X6X6X:XwXwXwXwXwXeXqXj y 5XeXeXeXwXY.#X7X6X#X=     > > < < + & q 9 y 9 < X =   ^.wXeXeXeXK [ t.- A 0XeXeXeXeXeXeXo 0X0X0X0XwX",
"0X0X0X4X4Xl.p c Z C Z eXeXeXeXeXeXeXwXwXqX9X        o . 8 # 7 ; 7 a f = u - 1     #XeXeXeXeXeXeXeX!.Q.V., F H G j  X# rXqXeX0X0X",
"4XB.K.J.!.7X^.J.G.Z.E.J.eXeXeXeXeXeXi.h.Z.[.      ; a 3 4 t s c c a i : - 3 = p   n.] / eXeXeXeXeX$X5X{.[.}.k.U.).}.;XQ.Q.S.* 0X",
":X%X0X0X0X0X3X].T.{.~.J.T.eXA.B.A.A.L.J.).K.    O a + a t h R W Q.D k r   # i u p h.i.{ [ } eXeX6X{.~.^ $X*X{.].].+X0X0X0X X> 0X",
"} B.J.[.{.< D.6X6X0X0XH.J.J.K.J.J.J.].+X  X   + - - ; r p I x.L.' F.I O + + O     G.k.h.i.i.<.} $X{.{.7X@X$X*X3X#X< % %X@X[.Z.K ",
"6X3X3X3X7XeXwX0X0X5X*X+XQ.J.Q.~.1 C ~   9 9 . 7 p ; 3 p d p.eXX   eXa.c q X .     ~.i.{ T v.h.u.f.#X[.7X;X5XwXwXeXeX< 7X3X7X7X0X",
"6X6X6X3X3X0Xh.< > 0X0X6X0X6XV.[ <.i.H   * e > 3 3 3 4 p ( {.U     f !._ l * O       X O % r E p.<.$X+X+X0XwX0Xi.eXeXk 5X0X6X0X0X",
"3Xy.G.$X6X6X8X3XoXwXwX0X0X6X].k.H.b.    o =   t 3 + 8 n x.6XO       <XC.Z % X           C ].H.V.i.+X3X*XwXwXeX6XeXwXwXeX{.K.% 6X",
"3XQ.6X6X6X3X:X$X).eX+XA j 3X@Xk.Q./. X*XX : p 7 ; + a ( (.f         %  Xc.@.v 5 @       - oX~.J.Z.*X:Xh.eX7XeX3X6XeXqXeX0X7X% 6X",
"s.y i p X P :X7X7X0X6XZ V.7X$XY.].{.*X:X  : < o # 7 J S.&X0 X   r ,   R.O.X.X.X.o... .z 5 OX{.).!.3X7Xy 7X0XeXeXeX#X= < ; 7 1 k.",
"7X3X:X$XP.0X6X7X6X0X0XL 7X7XL / / / ].3X  , r l j A h.eX5X`.N.2.V e X @ ,.*.*.=.-.%.O.X.X.3.E / ! / 7Xm 0XeXeXeXeXeX+X7X7X0X0X0X",
"0X6X3X*Xb.wX0X0XeXG.b $X3X7Xf.l.h.i   X * m : eX!.+.(.%Xm.q o { L g     3.r.r.#.;.*.*.*.*.*.u X Z %X[ < - }.0X0XeXeX0X3X6X0X0X0X",
"3Xh.^.3X:X:X:XJ.f.6X7X7X3X3XD.Z.J.[.o eX{.G g p A d.qXM e ,               ,X7.4.q.e.e.0.&.;.n.j.s.$X$X0XeXeXwXB.+XqX7X6X+XK.u 0X",
"3X~.6X3X3X:X3X*X^.6X0X:X$X@XD.B.H.[.. O O X : l ^ /.i o % + .             9 I.5.B 6.6.9.w.q.B.N.h.+X|.0XeXeXwXl.6X0X0X0X6X@XG 6X",
"D.K ! ~ { H j a > o % ].~.0X*X3X6X5X        * F D.Z.X   O . .               `.M.N 5 w x B 8.M.'.].{.}.$Xi < } - j T :.t.[ ~ p  X",
":X*X$X#XQ.*X;X:X3X~.Y.+X[.qX6X7X7X6X    y : C h.eXX                           wXT % @ - w & 0 3X#XoX{.$X].].{.3X3X:X[.:X3X7X7X7X",
"3X3X*X*X!.*X:X7X7X7X*X#X@X0X6X5X4X4X      : H +XK                             1.F.n =   :     3X*X+X+X:X}.}.oX3X7X3X*X;X3X7X6X6X",
"+Xy.J.<X%X=XP.x.: = % [ i 9 o             > _ wX                                eX~ t X     ~.b X   o o V 0X6Xt U.#X3X3X|.P.h :X",
"*XJ.*X$X#X$X*X[.C m *X{.J.D.E.            r / X                                 9 ` h o O   ~.B.u.A.G.^.[.-X3XK  X3X:X:X7X|.F 0X",
"+XJ.+X#X#X#X#X$XC j $X+X~.^.).            7 rX`..X$X,X&X*X&X&X&X&X$X%X*X*X&X&X%X|.wXi o     ~.C.h.[.}.}.+X:X:X/ %X3X3X3X3X[.Z 6X",
"*X*X+X+XJ.}.{.@X@X*X{.+X].~.^ [ h.h.:X:X  y H ] p.B.B.j.b.k.x.x.b.b.V.C.x.Z.k.i./ N o   X   n.= > ~.r = Z K.^.{.{.[.~.|.$X*X;X:X",
"*X3X*X*X@X{.{.{.{.{.D.i.k.J.J.^.3X$X*X-X  % m g A Z F F F F C n n S S n L C h i g > X   3X*XQ.C.k.l.Z.[.l.'.eXeXeX~.^.3X:X7X:X:X",
" Xi.G.+X*X$XH ~.+X#X].G.K.E.J.J.+X}.|.*X      % X o 9 r f y y - 7 p o a p - o X o > X 3X:X[.eX0X*XQ.^.~.j.eXeXeXeXeX+XoXK.A.y *X"
};
