/* XPM */
static char *cf2dd0eb0b45484cbc0c493fb4bb916dn7h1kePcanr0hBh2[] = {
/* columns rows colors chars-per-pixel */
"64 64 195 2 ",
"   c black",
".  c #010101",
"X  c #020202",
"o  c gray1",
"O  c #040404",
"+  c gray2",
"@  c #060606",
"#  c #070707",
"$  c gray3",
"%  c #090909",
"&  c gray4",
"*  c #0B0B0B",
"=  c #0C0C0C",
"-  c gray5",
";  c #0E0E0E",
":  c gray6",
">  c #101010",
",  c #111111",
"<  c gray7",
"1  c #131313",
"2  c gray8",
"3  c #151515",
"4  c #161616",
"5  c gray9",
"6  c #181818",
"7  c #191919",
"8  c gray10",
"9  c #1B1B1B",
"0  c gray11",
"q  c #1D1D1D",
"w  c #1E1E1E",
"e  c gray12",
"r  c #202020",
"t  c gray13",
"y  c #222222",
"u  c #232323",
"i  c gray14",
"p  c #252525",
"a  c gray15",
"s  c #272727",
"d  c #282828",
"f  c gray16",
"g  c #2A2A2A",
"h  c gray17",
"j  c #2C2C2C",
"k  c #2D2D2D",
"l  c gray18",
"z  c #2F2F2F",
"x  c gray19",
"c  c #313131",
"v  c #323232",
"b  c gray20",
"n  c #343434",
"m  c #353535",
"M  c gray21",
"N  c #373737",
"B  c gray22",
"V  c #393939",
"C  c #3A3A3A",
"Z  c gray23",
"A  c #3C3C3C",
"S  c gray24",
"D  c #3E3E3E",
"F  c #3F3F3F",
"G  c gray25",
"H  c #414141",
"J  c gray26",
"K  c #434343",
"L  c #444444",
"P  c gray27",
"I  c #464646",
"U  c gray28",
"Y  c #484848",
"T  c #494949",
"R  c gray29",
"E  c #4B4B4B",
"W  c #4C4C4C",
"Q  c gray30",
"!  c #4E4E4E",
"~  c gray31",
"^  c #505050",
"/  c #515151",
"(  c gray32",
")  c #535353",
"_  c gray33",
"`  c #555555",
"'  c #565656",
"]  c gray34",
"[  c #585858",
"{  c gray35",
"}  c #5A5A5A",
"|  c #5B5B5B",
" . c gray36",
".. c #5D5D5D",
"X. c gray37",
"o. c #5F5F5F",
"O. c #606060",
"+. c gray38",
"@. c #626262",
"#. c gray39",
"$. c #646464",
"%. c #656565",
"&. c gray40",
"*. c #676767",
"=. c #686868",
"-. c DimGray",
";. c #6A6A6A",
":. c gray42",
">. c #6C6C6C",
",. c #6D6D6D",
"<. c gray43",
"1. c #6F6F6F",
"2. c gray44",
"3. c #717171",
"4. c #727272",
"5. c gray45",
"6. c #747474",
"7. c gray46",
"8. c #767676",
"9. c #777777",
"0. c gray47",
"q. c #797979",
"w. c gray48",
"e. c #7B7B7B",
"r. c #7C7C7C",
"t. c gray49",
"y. c #7E7E7E",
"u. c gray50",
"i. c #808080",
"p. c #818181",
"a. c gray51",
"s. c #838383",
"d. c #848484",
"f. c gray52",
"g. c #868686",
"h. c gray53",
"j. c #888888",
"k. c #898989",
"l. c gray54",
"z. c #8B8B8B",
"x. c gray55",
"c. c #8D8D8D",
"v. c #8E8E8E",
"b. c gray56",
"n. c #909090",
"m. c gray57",
"M. c #929292",
"N. c #939393",
"B. c gray58",
"V. c #959595",
"C. c gray59",
"Z. c #979797",
"A. c #989898",
"S. c gray60",
"D. c #9A9A9A",
"F. c #9B9B9B",
"G. c gray61",
"H. c #9D9D9D",
"J. c gray62",
"K. c #9F9F9F",
"L. c #A0A0A0",
"P. c gray63",
"I. c #A2A2A2",
"U. c gray64",
"Y. c #A4A4A4",
"T. c #A5A5A5",
"R. c gray65",
"E. c #A7A7A7",
"W. c gray66",
"Q. c #A9A9A9",
"!. c #AAAAAA",
"~. c gray67",
"^. c #ACACAC",
"/. c gray68",
"(. c #AEAEAE",
"). c #AFAFAF",
"_. c gray69",
"`. c #B1B1B1",
"'. c #B2B2B2",
"]. c gray70",
"[. c #B4B4B4",
"{. c gray71",
"}. c #B6B6B6",
"|. c #B7B7B7",
" X c gray72",
".X c gray73",
"XX c #BBBBBB",
"oX c #BCBCBC",
"OX c gray74",
"+X c gray",
"@X c gray75",
"#X c #C0C0C0",
"$X c gray76",
"%X c #C3C3C3",
"&X c gray78",
/* pixels */
"A.A.T.A.A.A.C.A.C.N.v.C.N.I.H.A.H.I.v.H.H.A.H.H.C.H.H.C.A.C.j.a.j.N.N.v.N.N.H.A.I.T.A.j.H.I.C.j.e.7.4.e.y.H.N.y.a.,.X.,.j.H.H.h.",
"j.T.C.H.H.v.a.v.A.N.!.(.`.!.I.C.N.H.C.I.I.I.H.I.T.I.H.H.A.A.h.j.a.A.C.C.A.A.I.I.A.I.T.j.H.A.A.v.e.e.7.y.v.A.C.j.a.X.7.,.h.H.I.j.",
"H.N.C.I.C.A.A.A.H.C.I.A.H.H.I.H.H.!.H.A.I.I.(.T.T.I.H.T.A.v.j.C.N.H.A.C.N.T.H.H.I.A.H.N.H.H.N.v.4.4.,.h.v.T.v.h.h.X.7.7.N.A.A.C.",
"C.H.C.N.H.v.H.H.(.H.H.H.C.I.I.I.I.!.T.I.(.(.(.!.T.T.N.h.y.v.C.C.A.A.A.N.I.T.H.C.H.I.A.C.A.A.A.h.e.e.y.j.C.H.j.a.a.:.y.e.C.C.H.H.",
"N.A.v.A.H.A.A.C.C.A.H.C.!.I.H.T.T.}.T.T.!.!.!.T.T.H.C.h.h.H.I.I.C.C.N.C.H.N.T.A.A.I.I.N.I.C.A.j.e.4.j.C.A.H.v.j.a.&.j.y.I.(.`.C.",
"N.C.I.C.v.N.H.C.H.H.N.H.I.H.A.I.T.`.`.T.(.I.I.!.H.N.N.v.C.A.I.N.N.H.I.I.!.H.I.H.!.T.I.A.T.j.N.h.y.h.v.H.I.H.h.j.a.:.A.e.C.C.T.H.",
"N.C.A.v.A.N.H.T.A.H.I.H.I.T.`.(.`.(.`.(.!.!.T.C.v.h.C.!.I.T.T.I.A.H.I.!.!.T.!.T.H.I.I.A.I.A.a.y.a.j.N.T.H.v.v.a.y.X.`.7.H.I.T.H.",
"N.A.H.A.H.N.C.I.T.A.H.I.!.!.!.(.`.`.(.(.(.!.C.C.C.A.H.I.!.I.I.N.v.H I.I.!.T.!.H.T.I.H.A.A.j.h.a.e.j.H.I.N.A.N.v.,.:.`.y.C.H.(.I.",
"A.H.I.A.I.A.H.A.H.I.T.}.(.(.!.(.T.`.`.T.(.C.C.H.T.T.I.T.H.T.I.x y.n z A.!.I.C.H C.H.I.H.C.H.v.h.h.j.A.T.I.C.H.v.:.,.I.v.H.T.!.T.",
"N.H.I.H.I.T.I.C.T.}.(.(.(.(.`.!.(.(.(.(.H.N.C.T.!.!.H.I.!.!.H.E n &.( F N.H.a.! 4.H.!.C.T.C.v.a.h.C.!.C.C.C.A.v.,.,.e.v.H.!.(.T.",
"I.A.C.I.H.A.!.T.!.!.!.(.`.(.(.I.(.(.T.C.v.H.I.I.I.T.I.T.H.T.T.7.X.E ! H ] j.N.X.F v.A.C.A.H.j.j.j.C.H.I.A.C.v.N.4.y.,.A.C.T.(.!.",
"T.!.T.I.T.I.T.H.(.T.I.(.(.`.I.}.!.!.I.H.A.H.I.I.(.(.!.H.T.H.A.n F O.! H F H 4.:.U ,.v.h.j.v.y.v.N.T.T.C.(.C.N.j.,.,.7.A.A.T.T.!.",
"I.I.H.!.`.(.H.I.!.T.I.`.!.(.T.(.(.A.H.H.C.(.(.(.}.`.T.!.!.T.!.v.} U U ! e 4 B n n f 4.j.h.A.j.j.H.T.(.C.C.j.v.N.e.7.:.T.I.T.T.I.",
"T.H.C.T.H.T.T.!.I.I.T.T.`.T.T.H.N.H.N.I.!.(.}.(.!.}.T.T.(.(.!.j.h.:.E E 7 a e e 7 f ,.7.a.C.a.h.H.T.T.I.N.A.j.a.&.7.4.!.T.I.I.!.",
"A.H.H.T.T.N.I.I.A.A.A.H.H.H.A.C.A.C.T.!.(.}.`.(.(.(.`.!.`.!.T.v.C.7.&.} e z 7 7 4 f E O.a.a.y.C.H.!.I.C.C.C.C.e.,.:.,.I.T.}.!.!.",
"T.C.A.T.!.A.A.A.T.C.A.C.A.A.N.N.A.!.}.`.!.!.!.`.(.`.}.!.!.!.T.H.z :.&.] a f a 4 < f U 4.,.h.e.v.H.I.A.H.A.N.N.e.a.:.,. XC.(.T.!.",
"C.H.A.H.H.I.A.A.C.C.j.N.v.j.v.C.(.!.!.!.T.(.T.(.(.`.!.!.T.(.T.H.} n n f a f e 7 a a E &.,.,.4.v.I.I.A.I.C.H.N.y.y.e.,.+XH.T.T.A.",
"H.A.A.H.H.N.N.j.h.e.&.7.e.j.C.T.!.I.H.T.T.!.`.`.}.(.(.(.!.!.(.I.N.h.y.] B ! x f f z } } :.,.7.v.I.T.H.(.N.T.H.7.y.e.e. XC.C.T.C.",
"T.!.!.T.N.j.a.( < 4 4 f ( 7.4.h.A.I.H.T.I.T.!.(.`.(.T.(.`.(.!.I.H.C.N.h.&.:.( E H H ] O.O.a.7.N.H.A.C.N.C.H.j.e.7.,.e.C.T.H.T.v.",
"H.H.A.j.h.} r X X X X X a n x y.v.v.H.T.!.T.I.(.`.!.(.T.`.!.I.!.T.I.C.C.j.e.:.} E ! } &.&.,.y.v.N.A.A.C.C.I.N.y.7.7.7.j.`.I.T.I.",
"H.C.N.7.B = X X X X X X + 7 + a X.,.j.C.I.(.T.(.}.`.`.!.(.}.T.!.!.I.H.C.a.j.e.4.O.X.&.,.,.4.v.N.a.C.A.h.C.A.N.a.7.,.,.y.+X(.N.C.",
"C.C.h.n X X X X X X X X X X X 4 B } y.v.C.A.I.(.!.!.I.(.`.}.T.`.T.(.I.C.N.A.a.e.:.O.&.:.,.&.j.v.h.v.v.j.j.N.v.e.e.e.h.a.&X XH.N.",
"C.y.O.e X X X X X X X X X X X * 7 H &.U N.A.A.!.!.!.T.(.!.`.(.I.T.H.N.N.C.j.j.e.7.&.&.&.,.e.C.v.y.v.v.H.h.v.j.7.y.,.h.y.#X#XT.j.",
"a.O.F 7 * X X X X X X X X X X + = e x ! h.I.I.!.!.T.T.T.!.`.!.T.I.!.T.`.T.v.v.N.7.4.&.4.y.a.v.j.a.a.h.N.T.N.j.:.O.:.4.e.+X+X`.j.",
"7.( B f < + X X X X X X X X + * < r n } 4.N.T.!.(.!.(.!.(.!.`.!.I.(.T.T.(.A.I.v.y.7.,.:.h.j.C.j.y.j.y.a.v.A.h.,.,.&.4.e.#X X+XN.",
"O.( U f 4 < + X X X X X X + < 7 z U X.e.N.C.T.!.!.!.!.!.T.!.!.T.C.T.!.I.!.`.H.N.y.y.y.e.j.A.C.j.v.h.a.a.:.a.v.:.O.&.O.:.T.v.!.I.",
"X.( B n a < + X X X X X X * 4 z H :.e.v.j.A.I.I.`.!.!.T.I.!.(.I.I.A.I.(.H.(.I.v.v.4.4.j.H.T.C.N.e.a.h.a.4.A.v.O.O.X.X.O.a.N.C.H.",
"O.&.U n a 4 = + X X + + X 4 z F } :.a.N.v.N.H.H.T.!.!.!.T.!.(.I.H.I.I.I.H. XH.v.a.e.7.A.H.H.C.h.N.h.a.j.4.a.7.&.X.( } ] e.I.C.A.",
":.( F B a r 4 + X X * * * r U ! &.4.j.A.C.C.T.I.I.T.!.(.!.!.!.T.I.H.!.T.H.!.!.N.a.7.a.j.H.A.N.j.v.j.N.v.H.C.h.4.} ! ! E 7.}.j.j.",
"] } E F a x 7 + X + + * < e H X.4.a.4.N.v.C.!.T.!.!.T.T.`.I.!.I.N.I.I.T.H.A.(.N.C.a.C.T.I.A.A.j.j.h.C.y.a.A.C.7.O.X.} ( 7.}.N.a.",
"} X.! B B z e * + * + < 7 z H O.O.,.7.C.A.H.A.!.!.I.C.I.H.T.(.!.!.e.h.C.N.j.H.j.j.h.N.I.I.H.A.C.N.N.N.v.j.( :.7.X.} ] ] &.&Xj.7.",
"O.} E n H n e < * * X < e B ] O.a.h.y.C.C.I.C.(.!.I.N.I.(.!.!.(.(.T.T.N.H.C.I.v.N.h.I.!.T.A.H.`.I.A.v.C.} &.&.! F U U ( ! !.h.e.",
"X.( E F H x r 7 < = = < 7 B E O.,.h.a.v.H.I.A.!.(.T.I.I.(.`.!.I.C.N.N.N.v.A.!.N.a.C.T.T.T.!.v.v.y.7.O.! ! U j.} B a a x B T.C.,.",
"&.X.H H B f a e 7 < < < r x } O.y.N.v.N.H.T.v.T.T.T.I.H.T.!.H.A.I.C.C.H.A.H.!.j.y.H.T.H.I.(.I.N.h.,.} n 4 e z &.F 4 4 7 x &X+X] ",
"] ! U ! B z a f a 4 4 7 n H X.4.h.j.v.I.A.I.j.C.!.(.I.I.T.!.H.N.!.N.C.,.X a.N.v.a.I.I.T.!.+XI.C.a.y.7.} E B x r 4 7 = = 4 :.H.F ",
"X.] ! E x x z z f e 4 e H } O.e.j.v.v.T.A.A.A.A.T.I.H.H.I.H.I.C.h.O.4.} z * h.j.y.!.T.H.H.h.!.C.y.y.:.r + 4 < < < * * + * r y.4 ",
"X.} ! U H B x x f e 7 f ! O.,.e.a.v.N.v.H.A.H.N.T.I.H.A.H.A.H.A.4.X.4.U r = H 4.H.!.T.A.I.e.+XT.j.4.y.( x a 7 < * + X X X * x * ",
"] } ( U B H F x n f r z ! ,.7.e.j.v.v.C.A.N.N.C.C.H.A.N.C.I.C.N.:.} &.H a 7 } ,.I.H.T.H.I.7.a.N.v.e.y.F a a r = * + X X X X + + ",
"] ] F F B F B F n z a n O.7.y.7.v.v.N.C.v.N.h.N.y.v.A.a.v.A.C.h.,.} &.x e f ! X I.I.h.A.N.a.j.h.y.e.,.B r r B r 7 4 < + X X + * ",
"] E U B F n B n z x f U &.y.y.4.y.h.N.C.v.C.A.C.H.j.v.h.y.N.N.j.} E E r 4 x F < e.C.I.T.j.N.y.h.e.e.e.O.] E E E F n r + X + = < ",
"H E F U F B B B B x B } :.y.y.a.4.j.v.j.h.N.v.A.N.I.H.h.h.j.v.v.] F F 4 e x z f v.a.v.v.N.a.h.y.y.,.7.&.&.] O.( F B 4 X * f 4 7 ",
"H F B B F F n n x n n X.&.4.4.e.&.e.7.4.j.j.C.N.N.A.H.h.&.v.j.h.H f < * e f a B v.N.N.N.a.j.C.j.h.7.e.&.X.} X.] E r * r x z e r ",
"H B n H n x B B n n F H &.4.,.e.:.4.y.:.:.h.h.h.h.N.C.7.} &.e.,.B * + + < 7 e E &.C.j.C.h.C.C.a.j.7.y.a.&.} O.} ! e x H F H z a ",
"B x B n x n n n n x n ( } } 4.:.7.&.7.( X.&.4.y.4.y.y.&.E X.a.X.7 + X X X + < &.&.T.j.j.v.N.C.j.v.y.7.:.&.X.&.} E F E E B E n z ",
"z n n x n f f z n x n H } ! 4.&.:.] 7.U } ( :.,.,.:.,.} n U X.x * + X X X X + :.7.I.C.v.a.H.C.C.e.a.7.,.&.X.,.} ( ( ! ( ! U B n ",
"z n x x z z f f z x z U E ] ] :.&.&.,.U E } X.O.X.,.X.U z r r = + X X X X X * ,.a.A.A.j.:.I.e.A.a.7.4.&.O.O.:.O.] } ] ] ! ] ,.U ",
"f x z f f r z z z z x F U E ! ( X.} O.E U H ] X.( } ! E n 4 = + X X X X X X 4 ,.4.N.H.N.h.H.h.h.e.e.:.4.X.:.:.X.} } ] E E ( h.7.",
"f f f f a r f z f a z x B U E ] ( ] ! ! B B ] ! U ] ! ! U 7 * X X X X X X + x y.a.e.!.N.a.v.y.e.y.e.7.:.:.:.4.X.X.} ] ( } X.v.y.",
"f a a a a r a a a a a n B B H ! E ] ( U z B B ( ! E ( ] E n < + X X X X X = ! 7.y.7.H.v.y.j.y.y.y.7.,.&.&.&.:.&.} ] ( ! ] ] j.y.",
"f r a r r a a a a a r x z B n F U ( ( ! f x x H E F ! ( ( ! z = * X X X X a &.7.7.e.H.N.h.N.y.e.4.7.:.O.:.X.&.O.} } ( ] E ] h.a.",
"r e r e e e e r r e r a f z B B H H U U B f n F n F B U E U U e = + X + * B ( 7.h.7.N.I.h.y.&.:.&.:.O.:.X.4.:.O.( ( ! ] ! ! j.a.",
"e r r e 7 e r e e e e r f x n F B H U U B z a x x B B F B E E f < * + * 7 ( ! 7.e.7.a.H.y.y.,.,.:.7.O.:.} X.O.O.} ( ] } E E j.h.",
"e e 7 7 e e 7 7 7 7 e e a z x n n n B H B z z z a x x B U O.E a 4 = * < e E ( ,.,.:.&.T.h.7.O.,.:.:.,.:.O.O.&.] O.E ] } ! ! a.y.",
"7 e 7 7 7 e 7 e e 4 4 7 r r a a f x z B B z a r z a n n H U U z 7 = = 4 f ! E &.7.,.7.A.j.:.e.7.O.,.:.X.} X.X.} } ( ( } U ( ,.y.",
"7 4 4 7 7 4 7 4 7 4 7 7 r r r f a f r f x x f f f z x n B U F f 7 < < 7 a ! ! &.:.,.4.N.C.X.,.:.4.4.,.:.X.O.} ( ( ! ! ( ( ( h.7.",
"7 7 7 7 4 4 7 7 4 4 7 7 e r r f a f e f z f a f f f f z x H F a 7 < < e f E E X.&.:.&.7.N.X.:.:.&.O.X.] ( O.&.] X.X.] ! ( ( h.( ",
"7 7 4 4 4 7 < 4 4 < 4 4 7 e e r a e r r z f r e a a a z f n x r 7 4 4 7 f H F } X.&.O.&.a.( X.O.:.:.] X.O.} X.} } ( ] ! ( ] a.B ",
"7 7 4 4 4 4 4 4 4 < 4 4 7 e r e e r r e f r f r r r a f r x f e 4 4 7 e f U F ( ] X.] ] y.! ( X.&.&.} X.X.} X.] } ( ( U E ( 4.B ",
"7 7 4 < 4 4 4 4 4 = < 4 4 7 e 7 r a e e a a a r e e a r e x a e 7 7 7 7 z U n ] ( O.] X.e.] ] ! &.O.&.&.&.] O.] ( E ! ! E ( a.B ",
"7 4 4 4 < 4 4 4 4 = 4 < 4 7 7 r e 7 e e r r r r a e e r e a e 7 4 7 7 e z U B ! ! } :.! ,.( E ( O.&.&.O.:.] X.X.] ( ( ( ! ( e.z ",
"7 7 4 4 4 < 4 4 4 = < 4 4 4 7 7 e e e e e e e a f e e e e r 7 4 7 7 7 r z F F ! X.} ! } X.X.F } ] X.} O.&.X.] ( ( ( ! ! E ! 4.x ",
"7 7 4 4 < 4 < < < = < 4 4 4 7 7 e 7 4 e 7 7 e r a 7 7 7 7 e 7 4 4 7 e e x F n E ! ! } E } :.E U ( } } X.O.] } ] ( ! ! U E ! &.x ",
"7 7 4 4 < 4 4 4 < = < 4 4 7 7 7 7 7 e r 7 7 e e e e e 7 7 7 7 4 7 7 r r x U n U E E ( ! ! ,.H H ] } } O.X.&.X.X.( ! ! ! E E ( f ",
"e 7 7 4 4 4 4 4 < = < < 4 7 7 7 7 7 e 7 7 7 7 e r e e 7 4 7 7 4 7 7 e r x F x H H E ( ! ! X.x E U ] ] } X.} } ! ] ! ! F E H n x "
};
