/* XPM */
static char *fe1b23cf85aa44c78abdadbce250f5a0Ibm4Q9awArIWQZAn[] = {
/* columns rows colors chars-per-pixel */
"64 64 247 2 ",
"   c #000000",
".  c #0B0303",
"X  c #050A04",
"o  c #0B0A05",
"O  c #04050A",
"+  c #0A050B",
"@  c #050B0B",
"#  c #0B0A0B",
"$  c #130404",
"%  c #130B06",
"&  c #12060B",
"*  c #1C040B",
"=  c #130C0B",
"-  c #1C0C0B",
";  c #190807",
":  c #0C120D",
">  c #061309",
",  c #14140B",
"<  c #1A180D",
"1  c #0B0C13",
"2  c #0A0A14",
"3  c #140D13",
"4  c #1C0C13",
"5  c #140D1C",
"6  c #160916",
"7  c #0C1314",
"8  c #0E1913",
"9  c #0D141A",
"0  c #0B1919",
"q  c #131513",
"w  c #1A1313",
"e  c #141C13",
"r  c #14131A",
"t  c #141B1B",
"y  c #1B1817",
"u  c #240808",
"i  c #360C0C",
"p  c #2B0C1A",
"a  c #260E17",
"s  c #360C1B",
"d  c #221415",
"f  c #2C1315",
"g  c #241A14",
"h  c #25151B",
"j  c #241B1B",
"k  c #2B1A1A",
"l  c #341918",
"z  c #2B160D",
"x  c #1A2518",
"c  c #192519",
"v  c #172711",
"b  c #272819",
"n  c #352718",
"m  c #3B391C",
"M  c #161722",
"N  c #16182A",
"B  c #260E26",
"V  c #271829",
"C  c #341C27",
"Z  c #241934",
"A  c #35122D",
"S  c #182626",
"D  c #18322A",
"F  c #192A34",
"G  c #1D3436",
"H  c #262923",
"J  c #352425",
"K  c #273828",
"L  c #373825",
"P  c #382439",
"I  c #263C38",
"U  c #232A3B",
"Y  c #431C17",
"T  c #4D1414",
"R  c #4F2718",
"E  c #652919",
"W  c #75221E",
"Q  c #4C172C",
"!  c #6A192F",
"~  c #432328",
"^  c #473B2A",
"/  c #583D2B",
"(  c #452432",
")  c #542B31",
"_  c #6B2F2F",
"`  c #2A4839",
"'  c #374735",
"]  c #304D2C",
"[  c #2A4629",
"{  c #40581E",
"}  c #51492A",
"|  c #4A5728",
" . c #5C5833",
".. c #4B4C36",
"X. c #664A36",
"o. c #69492E",
"O. c #5C6C3B",
"+. c #6E673D",
"@. c #193644",
"#. c #392744",
"$. c #2B3B47",
"%. c #2B3D58",
"&. c #363354",
"*. c #2F2A4E",
"=. c #3C3D69",
"-. c #472747",
";. c #472C5A",
":. c #4F2F4F",
">. c #663749",
",. c #653656",
"<. c #773A5A",
"1. c #602748",
"2. c #55356B",
"3. c #693565",
"4. c #763767",
"5. c #6B306F",
"6. c #385747",
"7. c #395957",
"8. c #294A54",
"9. c #3A6A5A",
"0. c #3A5B66",
"q. c #2C4B6C",
"w. c #3C6973",
"e. c #1E4F53",
"r. c #4B524B",
"t. c #784B5D",
"y. c #6F4646",
"u. c #55704C",
"i. c #7B6D4B",
"p. c #6C714E",
"a. c #44456C",
"s. c #4F4F7C",
"d. c #67456C",
"f. c #794762",
"g. c #6D4479",
"h. c #496C67",
"j. c #42657D",
"k. c #577978",
"l. c #506F70",
"z. c #697A65",
"x. c #872C33",
"c. c #AE3138",
"v. c #9A4F33",
"b. c #837B3C",
"n. c #A44C38",
"m. c #8F2C52",
"M. c #B43342",
"N. c #993267",
"B. c #834F53",
"V. c #A95857",
"C. c #806745",
"Z. c #877546",
"A. c #8E7353",
"S. c #A87347",
"D. c #864979",
"F. c #925172",
"G. c #986C67",
"H. c #A57C79",
"J. c #AC407C",
"K. c #738451",
"L. c #578779",
"P. c #508869",
"I. c #738C64",
"U. c #649C67",
"Y. c #868252",
"T. c #928453",
"R. c #9A995E",
"E. c #8A9656",
"W. c #A38D54",
"Q. c #9C8C62",
"!. c #9D9965",
"~. c #A69B68",
"^. c #A98776",
"/. c #B18D7D",
"(. c #99AE74",
"). c #92B372",
"_. c #A6A76C",
"`. c #AABD7D",
"'. c #AFA677",
"]. c #A6C37E",
"[. c #594D87",
"{. c #585889",
"}. c #485486",
"|. c #694785",
" X c #755490",
".X c #4D7288",
"XX c #716E97",
"oX c #7B68A0",
"OX c #95598D",
"+X c #925792",
"@X c #876495",
"#X c #996799",
"$X c #99648E",
"%X c #A46789",
"&X c #B07392",
"*X c #9477A7",
"=X c #AC78A9",
"-X c #8758A0",
";X c #C079A5",
":X c #598686",
">X c #568C8D",
",X c #678C98",
"<X c #649398",
"1X c #70AA91",
"2X c #798FA7",
"3X c #79A2A6",
"4X c #77B5A8",
"5X c #7EC285",
"6X c #B88799",
"7X c #B08C8D",
"8X c #B7A987",
"9X c #B3B788",
"0X c #BEAF95",
"qX c #AFB486",
"wX c #8A90AC",
"eX c #B090B0",
"rX c #85A6AB",
"tX c #8FB0B6",
"yX c #A3A5BB",
"uX c #B6A3BF",
"iX c #C295B3",
"pX c #C9A5B6",
"aX c #C7AEAA",
"sX c #9AC897",
"dX c #96C997",
"fX c #AAC487",
"gX c #A8C896",
"hX c #BAC797",
"jX c #B4CB92",
"kX c #9CCFB7",
"lX c #90CAAB",
"zX c #BCCDA6",
"xX c #A7D5B6",
"cX c #A6CEAF",
"vX c #C8C59A",
"bX c #D2D2B4",
"nX c #CDD3B3",
"mX c #ADB4C5",
"MX c #B297C0",
"NX c #C39FC3",
"BX c #D5B3C1",
"VX c #A9D6C4",
"CX c #ACCBCB",
"ZX c #BAE2CD",
"AX c #D3CDD3",
"SX c #E5E6D1",
"DX c #DEEFE9",
/* pixels */
"                                                                                                                                ",
"                                                                                                                                ",
"                                                                                                                                ",
"                                                                                                                                ",
"                                                                                                                                ",
"                                                                                                                                ",
"                                                                                                                                ",
"                                          O       # > D b                                                                       ",
"                              X                 O   5 5 O 5                                                                     ",
"                            O #   X         # , b K u.[ I.] e e                                                                 ",
"                            + .     #   d & O 5 r C >.3 P -.#.3 &                                                               ",
"                      X     O b S 7 @ X X 8 0.F ` l.j.4Xh.9.L.L.S #                                                             ",
"                      O O = g j y C 3 r d F.t.j t.G.G.7XH.G.F.H.X.q                                                             ",
"                      O O # M @.%.0.` I 8.<X3X,X3XtXtXrX,X.Xj..X>XG                                                             ",
"                  X     x | { C.T.Z.Y.T.A.qX8X0XbXSX8X!.+.Y.i.Q.8X} +                                                           ",
"                        5 9 9 #.2.{.[.s.s.wXyXmXAXwX&.N Z *.=.XXwXa.@                                                           ",
"                        . . < L u.fXhX`.9XbXSXSXzX(.< o , S K.9XhXE.b                                                           ",
"                          O   M *.#X#X@X#XeXeX*X#.O       3 P @XuX,.r                                                           ",
"                              X K 1XxXcXxXxXcXu.x O       : r.sXZXsX' #                                                         ",
"                                . p =XiX%X;XF.V           = P =XpXF.3                                                           ",
"                                O M 6.4XkXtX` t         X S L.1X4X0.D                                                           ",
"                                  . j G./.i.H X         . h B.A.^.y.d                                                           ",
"                                  X 0 w.,X.X*.@       O 1 q..X8.q.F 1                                                           ",
"                                    k C.9X9X .g =   . z +.9X!.^ i.m #                                                           ",
"                                  O y 2.oXXX[.V 5 M % C @X*Xg.&.&.M                                                             ",
"                          X . .   X H u.jXjXfX).' ^ `.vXW.`.u.fXY.H #                                                           ",
"                          . $ 4 = p ( -.=XNX#Xg.2.=XeXF.J.3.:.|.Z &                                                             ",
"                        O   . 4 t D I 9.VXDXxXlXkXVXcXzXA.y lXL.K X                                                             ",
"                        O     o & w 5 2 >.F.,.<.%X&X6X&XT ) t.C 4                                                               ",
"                                X S t 1 1 # O G 7.<X<Xr.+ g H y                                                                 ",
"                                  o , < < n n Z.A.Z._ = i W Y .                                                                 ",
"                            .     O # O M r 1 9 7 @ @   ; f                                                                     ",
"                            . .                       . l i .                                                                   ",
"                              . .                   & 4 s $ & .                                                                 ",
"                                .             X   K p.z.Y n ..O                                                                 ",
"                                $ ; & o & - i s ,.=X$X! T <.OXw                                                                 ",
"                                .   7 @ S K f z.h.L.x < ..lXlX8                                                                 ",
"                              . . u . + f Y T ) ~ d ; x.V.6XeXk                                                                 ",
"                                . . . . . = $ $ . + y :.k.rXmX%.                                                                ",
"                                o ; $ . $ = = ; o - _ n.W.0XnXb.                                                                ",
"                                  . . . O 3 4 o . % l 1.d.yXAXa.O                                                               ",
"                                # X o $ % # z g < n C.S.W.nXSXvXq                                                               ",
"                                    . . . a s s C s ! m.N.OXMXeX;.    .                                                         ",
"                              O   X o $ o H b 4 b g +.A.A.zXcXxXU.x   X                                                         ",
"                        O     .   . = f = 4 u f = h ! M.M._ F.%XD.C $ 1 # .   .                                                 ",
"                  O     O     O     . % . # c w r y ^ i.y.h.6.8.k.7.<X:Xk.I t t S @                                             ",
"                    O       @   X o . * . . i a a p E c.n.V.) ^ >.y.G.H.7XaX7X^.A.} g                                           ",
"                            X     O . X   O ; . O t e Q ( j.q.q.q.` *.@.e.j.2XrXmXtXrXj.t 7 1   2 + O                           ",
"                          X o X X O - ;   $ i - . o n v.S.~.'._.R.R.R.T.O. .| i.!.'.qX'.~.~.R.R.p. .q # X                       ",
"                            O O O $ & 1 + . $ O   O O p ! 3.d.oX X|.2.P -.;.a. X;.[.[. XXX X@XoX*XeX X#.o +                     ",
"              # X O   X O # O O . u u < e , . =   o < k E E qX(.jXgX].`.).L c b ' I.).].fX(.fXfXfXjXnXnXfXI                     ",
"          X   + O               . u p 3 + + &       + p Q m.m.3.:.D.f.<.3.#.4 d 5 V 4.+Xg.#X$XOX$X#X=XiXMX#XP 1                 ",
"      O   : @   + O X @ . #   X   $ - e 8 H , O   t 8 7 ( T Y r.u.P.L.1X1X6.' e q x ` 7.h.dXcXkXkXZXVXxXVXVXkX`                 ",
"        #   1 O       . O     . ; i ; h ~ a B # . o , 4 s ! c.x.m.<.D.y.f.1.C $ o 1 + 2 J t.%X6XiXpXBXpXpXeX7Xf.6               ",
"    .   #   1       O X     X   & % w S 1 F r   X + > 9 e f r.J $.%.` 7.0.G S D 1 @ N t c 9.<X>XrXCXCXCXVXrX3XL.]               ",
"  O     o # + # O X   # . # o % % Y l w = - ; X   X X l f E _ x._ m X./ m L m J o     w / L } Q.8X0XaX0XaX8XQ.^.| <             ",
". O X O     O +         O O X   $ a M @ # : O O   # + 7   9 &.f k U U 8.*.$.%.F 5 + O X r %.$..X2XyXyXmXXXXX{..X}.%.            ",
"o # O O O @ , # O       # # . $ o , < w L b o X   O : # ^ u R L / o./ X.A.!.K.| e : = # v  ..._.hXvXbXbXvXfX_._.!.O.x           ",
"O   + . . O O   O O   + # 2   . * * a * 6 B +       2 . $ V + B s Q :.3. X&.V *.B +     M Z A |.-X*XuXeX*X@X2. X5.|.;.          ",
"1 : X   # @ + . O O O 8 b # O . < b : O H ' # O # @ e t c H , b } o.^ E.gX5X).u.e H #   # x ' u.sXcXsXdXsXgXgXdXz.).r.O # #     ",
"O # O   o     2 #     + w     p p - r 3 C 4 3 X O 2 # & k C r V ( Y >.-.D.4.d.;.3 =   O 3 - ( 2.,.OX%X#X#XD.D.OXP OX,.O O       ",
"@ e x . @ 7 O 7 # X : # @ t @ q = 1 S H t I S 7 X X 9 q : t O F O V ..' P.:X1XU.D X   0 o @ $.h.h.$.P.P.:X:Xw.4X7.:Xl.: 0       ",
"O 3 d O + O + 4 o = d + + O 4 u - C C k < n j o . w h ; n # d j 3 p Q l _ C V ( b X   o d X h J z C k g j h y.~ >.B.t.X.O       ",
"# 7 > @ 7 @ > 7 @ 1 >       # # r F D > @ M 2 1 +   X O + + F e t . V S S Z F @ # @   7 O .   r @ X 2   1 M M D 8.D G           "
};
