/* XPM */
static char *_2449ab65ef64e02e1ea8e533853af455rIjT9IO9jLgDMW8[] = {
/* columns rows colors chars-per-pixel */
"64 64 192 2 ",
"   c #000101",
".  c #080607",
"X  c #020906",
"o  c #090907",
"O  c #020609",
"+  c #030C0B",
"@  c #090B0B",
"#  c #03110D",
"$  c #0B110F",
"%  c #02180C",
"&  c #040F10",
"*  c #031313",
"=  c #0B1412",
"-  c #041916",
";  c #0C1B14",
":  c #031719",
">  c #091718",
",  c #051C1B",
"<  c #0A1C1B",
"1  c #101916",
"2  c #141C1A",
"3  c #04211E",
"4  c #0A221E",
"5  c #16231F",
"6  c #19221F",
"7  c #0A1E20",
"8  c #061F23",
"9  c #111F20",
"0  c #052422",
"q  c #0C2423",
"w  c #072A26",
"e  c #052824",
"r  c #062925",
"t  c #092A27",
"y  c #0B2A26",
"u  c #052728",
"i  c #0C272A",
"p  c #072928",
"a  c #072928",
"s  c #0A2D2A",
"d  c #0D2F2B",
"f  c #0C2D2B",
"g  c #102521",
"h  c #122423",
"j  c #182421",
"k  c #1A2322",
"l  c #132A25",
"z  c #142529",
"x  c #112D2B",
"c  c #142C2C",
"v  c #19292A",
"b  c #0D312E",
"n  c #13322E",
"m  c #1A322F",
"M  c #0C2F30",
"N  c #132E31",
"B  c #0E3031",
"V  c #133433",
"C  c #1B3533",
"Z  c #153935",
"A  c #1A3A37",
"S  c #183539",
"D  c #16393A",
"F  c #1C3C3B",
"G  c #143638",
"H  c #233332",
"J  c #283433",
"K  c #223A35",
"L  c #223738",
"P  c #233D3B",
"I  c #293B3B",
"U  c #373F3B",
"Y  c #1E403D",
"T  c #25423F",
"R  c #28413D",
"E  c #1A3F42",
"W  c #1E4343",
"Q  c #244543",
"!  c #2D4444",
"~  c #2C4844",
"^  c #2A4D4C",
"/  c #25484B",
"(  c #324041",
")  c #324944",
"_  c #324D4B",
"`  c #3C4C4C",
"'  c #3B4845",
"]  c #2D514D",
"[  c #3B5047",
"{  c #32524F",
"}  c #3A514E",
"|  c #2B4C51",
" . c #314F51",
".. c #2F5352",
"X. c #335453",
"o. c #3C5653",
"O. c #355854",
"+. c #3A5856",
"@. c #355B5A",
"#. c #3B5C5A",
"$. c #3D615D",
"%. c #3F6160",
"&. c #415656",
"*. c #455B54",
"=. c #435D5B",
"-. c #4C5E5C",
";. c #4B5451",
":. c #44625C",
">. c #4C615D",
",. c #50635D",
"<. c #445E60",
"1. c #446563",
"2. c #4B6563",
"3. c #496A66",
"4. c #476A6C",
"5. c #4C6C6C",
"6. c #536361",
"7. c #556B67",
"8. c #5C716D",
"9. c #587369",
"0. c #557472",
"q. c #5E7574",
"w. c #5B7976",
"e. c #5C7C7B",
"r. c #56777C",
"t. c #61756F",
"y. c #637971",
"u. c #647E7D",
"i. c #6E7F79",
"p. c #657572",
"a. c #64807F",
"s. c #7D897F",
"d. c #74837E",
"f. c #5D8082",
"g. c #648481",
"h. c #6C8583",
"j. c #6B8886",
"k. c #6C8D89",
"l. c #668985",
"z. c #748582",
"x. c #748C8A",
"c. c #7A8E8C",
"v. c #718A86",
"b. c #74918F",
"n. c #7A938E",
"m. c #6F8E91",
"M. c #708C90",
"N. c #759492",
"B. c #7C9494",
"V. c #7E9896",
"C. c #7C9899",
"Z. c #889792",
"A. c #849C9B",
"S. c #889B95",
"D. c #8DA4A4",
"F. c #8DABA9",
"G. c #92A6A4",
"H. c #9DA7A6",
"J. c #94AAA6",
"K. c #99AAA5",
"L. c #94ABAB",
"P. c #9AAEAE",
"I. c #8FB3AF",
"U. c #96B0AF",
"Y. c #9BB3AD",
"T. c #9DB4B2",
"R. c #9BB8B6",
"E. c #A2B6AD",
"W. c #A1B5B3",
"Q. c #AEB7B4",
"!. c #A4B9B3",
"~. c #AABCB5",
"^. c #A2B7B8",
"/. c #A4BBB9",
"(. c #AABFBA",
"). c #ACC1BC",
"_. c #B3C4BE",
"`. c #B7C9BD",
"'. c #BEC5BD",
"]. c #AEC6C2",
"[. c #B2C6C2",
"{. c #B5CAC4",
"}. c #BBCAC3",
"|. c #BFCEC9",
" X c #C0CBC7",
".X c #C5D2CC",
"XX c #CAD3CB",
"oX c #D0D7CF",
"OX c #C1D4D3",
"+X c #CCD4D1",
"@X c #D4DBD3",
"#X c #D3E0D9",
/* pixels */
"                                                                                                                                ",
"                                                                                                                                ",
"                                                                                                                                ",
"                                                                                                                                ",
"                                                                                                                                ",
"                                                                                                                                ",
"                                                                                                                                ",
"                                                                                                                                ",
"                                                                                                                                ",
"                                                                                                                                ",
"                                                                                                                                ",
"                                                                                                                                ",
"                                                                                                                                ",
"                                                                                                                                ",
"                                                                                                                                ",
"                                                                                                                                ",
"                                                                                                                                ",
"                                                                                                                                ",
"                                                                                                                                ",
"                                                                            X X                                                 ",
"                                                          2                 X X X X X X                 X   X X X   X X       X ",
"                                                X         6 @               + + + X X X X X X     X X X X X X + X X X X X X   X ",
"                                X X             . X =   X j >   X         X & + + + + X + + X X   X + X + + @ * * # * * * *   + ",
"              X       . O X = ; # 2     #     X X j j O X , = X X         . + # * * * * * * X X X + + # * + < * * - < - : : : : ",
"    X .       + X     . 4 5 % # - 2     + X   X + J < X X z -.@ X @       > * * , , : , : 7 * + + * * : * * - , , , , , , 3 0 0 ",
"      X X +     .       H > q x q       @   X + # J = @ + * } * # =       I * * q V d N n q * @ + - : q , , 8 0 a 0 r 0 0 3 0 0 ",
"      + + + @   #     X q h ! Q X.    > X X X + # * < X + z w.: P Q       < * d F @.Q y V P i * + 0 0 q 0 r a y s s r 0 0 , e 0 ",
"    X X + + # X       o : =.T =.g.  o ( k - + g * g _ _ * * x , e.@.      + + : q =.0 F F O.! * + 3 r y r f f s f r r r 0 0 r 0 ",
"    X X X + # # X     o q =.o.C 2.o @ h.6.* @ : 7 C ^ e.* , a 3 I.<.      X z O.q ! a _ ] #.Q , * e r r r r s b y b y r y 0 r 0 ",
"  X X X + + # % >     . c o.K C 9.  @ ) ` % * 0 i N.X.e.M., N 0 R.v @     6.: w.g.! #.F s V Q 7 * r s M e u n V s r r 0 r 0 y 3 ",
"    X # @ + + * 3     . y C P 2.9 . = =.- < * Z 0 e.F.D.k.i b 0 {.OXo     X B.b.#.3.X.j.1.V ..q * D s D V Z V F f 3 0 q 3 < # X ",
"  X # # * * - , 0     o n _ } =.` X # =.0 r , Q ~ B.A.l.].q s a OX~.+     H./.j.2.Y n.D.g.h.r.q * F D / / V F Q F M q > > * = + ",
"  X # * - , 3 q f     o P } o.o.+ X K 2.r F 0 F =.x.G./.T.0 V b {.h +     p.).[.L.1.J.T.N.V.C.x :  .] 1.:.O.V { s A n 3 < *     ",
"  X * , , 3 q l x     o ! =.=.=.X @ t.7.f Q 0 d :.E.D._.[.E D W .Xl #     ' |.).L.k.G.(.W.P.J.C 7 2.5.w.5.1.$.X.X.Q D r 3 : X   ",
"  + - , 4 q l n c     o _ >.>.:.. $ 8.8.D X.s G c.`.}..X.Xq F Q XX.X*     ;.}..X~.A.L.(.[.(./.! q &.h.a.g.a.g.5.3.$.X.n y ; + X ",
"  + - : 4 q q l c   . o ) >.>.*.. = t.6.F { f F c.'.XX+X+X|.E ^ @X@X+      X_.{.~.L.L.(.{.{.[.C g 2 A.B.A.B.B.h.a.0.3.Y d = # + ",
"  + * - , 4 q y l     o 4 =.>.*.. = y.i.F #.f F h.XX@X@X@XoXW %.@X#X+ X   Q._.).!.W.L.!.{.[.[.n l < D.D.A.V.n.x.h.w.5.Y Z @ @ X ",
"  X # - : < q q q     o g -.>.,.X = d.s.l +.d V u.XX@X@X@XXXX.@..X{.+ X   K.~.W.Y.^.U.Y.(.).].P l J L.D.A.B.B.n.v.u.0.A x @ + X ",
"  X # - , < q l l     o * *.:.U o 2 y.z., Q q y w.}.|.}.}.~.X.X.~.e.+ X   z.S.J.P.P.T.T.^.).).R l ! F.D.A.N.b.x.h.a.2.c < + X = ",
"  X # # * - , , -     . @ n V X o ; C C 3 i , q O.K.S.Z.Y.t.| ..G.4.+ X   -.q.h.x.k.m.B.V.F.^.! c <.N.N.h.e.e.e.w.5.m 4 $ o . I ",
"  X + @ @ + # # #     X . 4 q   . 1 K m - , + * T [ ) 9.>.o.D V S Q + X   q ~ #.+.=.#.1.4.f.N.L c =.4.4.$.O.X.] ] ^ q 1 @ . . 0 ",
"    X X + + # # #       . * :   . l l - - - + * A ~ _ o.2.F B r r y X X   < h T K c P F F ^ 1.c q C V F A F Z i x i 1 $ + .   X ",
"        X X X X X         X     . # # # - - @ = ~ P ) 9.T i n 4 , , + X   J ' -.C ! ! 8.C F F r 7 c ! &.` I l n h >.$ + X . .   ",
"                                X + = # # # X # q.h 3 l r F f , , : X X   U 2 # r s b Z V P ) q < * C o.4 r - < ; # # X . .     ",
"                                . X + X + X X = # < v I 3 0 0 7 * = X X     . @ 5 K i C x c 4 < : * g 4 h P : 2 + # # X X .     ",
"                            . .       X X X + + # + * * - < : * < * X X         . X * H 4 * & * = & * < > + ; # + X X X . .     ",
"                                                X X X * # * * @ X $ X X           X X # = * + @ + X X @ # + + 2 + X   .         ",
"                                  .             .   X j + & # X + + X             . X = X # + @ X + X X   X @ X X       X       ",
"                                    .                 X X X X     .               X X X X X X X X X + .   .                     ",
"                                                  .     @       .                   + o   +                                     ",
"                                                .           .                       . o   .               .   .                 ",
"                                              .                                                                                 ",
"                                                        .                                                                       ",
"                                                                                                              .                 ",
"                                                      .                                                         .               ",
"                                                                                                                                ",
"                                                                                                                                ",
"                                                                                                                                ",
"                                                                                                                                ",
"                                                                                                                                ",
"                                                                                                                                ",
"                                                                                                                                ",
"                                                                                                                                ",
"                                                                                                                                "
};
